<svg xmlns="http://www.w3.org/2000/svg" viewBox="0 0 11.75 20.88"><defs><style>.cls-1{opacity:0.6;}.cls-2{fill:none;stroke:#fff;stroke-miterlimit:10;}</style></defs><title>facebook</title><g id="Слой_2" data-name="Слой 2"><g id="Layer_1" data-name="Layer 1"><g class="cls-1"><path class="cls-2" d="M10.84.5H8.27A4.53,4.53,0,0,0,3.5,5.39V7.65H.91a.41.41,0,0,0-.41.41v3.27a.41.41,0,0,0,.41.41H3.5V20a.41.41,0,0,0,.41.41H7.29A.41.41,0,0,0,7.69,20V11.73h3a.41.41,0,0,0,.41-.41V8.05a.41.41,0,0,0-.41-.41h-3V5.74c0-.92.22-1.39,1.42-1.39h1.74a.41.41,0,0,0,.41-.41v-3A.41.41,0,0,0,10.84.5Z"/></g></g></g></svg>