<svg xmlns="http://www.w3.org/2000/svg" viewBox="0 0 20.22 20.22"><defs><style>.cls-1{opacity:0.6;}.cls-2{fill:#fff;}</style></defs><title>instagram</title><g id="Слой_2" data-name="Слой 2"><g id="Layer_1" data-name="Layer 1"><g class="cls-1"><path class="cls-2" d="M14.84,0H5.38A5.38,5.38,0,0,0,0,5.38v9.47a5.38,5.38,0,0,0,5.38,5.38h9.47a5.38,5.38,0,0,0,5.38-5.38V5.38A5.38,5.38,0,0,0,14.84,0Zm4.41,14.84a4.42,4.42,0,0,1-4.41,4.41H5.38A4.42,4.42,0,0,1,1,14.84V5.38A4.42,4.42,0,0,1,5.38,1h9.47a4.42,4.42,0,0,1,4.41,4.41Z"/><path class="cls-2" d="M10.11,5.12a5,5,0,1,0,5,5A5,5,0,0,0,10.11,5.12Zm0,9a4,4,0,1,1,4-4A4,4,0,0,1,10.11,14.14Z"/><path class="cls-2" d="M15.78,3.53a.92.92,0,0,0-.92.92.93.93,0,0,0,.27.65,1,1,0,0,0,1.3,0,.92.92,0,0,0-.65-1.57Z"/></g></g></g></svg>