<svg xmlns="http://www.w3.org/2000/svg" viewBox="0 0 73.82 19.2"><defs><style>.cls-1{fill:#ffc14b;}</style></defs><title>Ресурс 2</title><g id="Слой_2" data-name="Слой 2"><g id="Layer_1" data-name="Layer 1"><rect class="cls-1" width="73.82" height="2.32"/><g id="_Группа_" data-name="&lt;Группа&gt;"><path id="_Контур_" data-name="&lt;Контур&gt;" class="cls-1" d="M36.77,9.27s2.25,3.54,2.25,5-2.25,5-2.25,5-2.25-3.54-2.25-5S36.77,9.27,36.77,9.27Z"/></g><g id="_Группа_2" data-name="&lt;Группа&gt;"><circle id="_Контур_2" data-name="&lt;Контур&gt;" class="cls-1" cx="36.77" cy="6.68" r="0.9"/></g><g id="_Группа_3" data-name="&lt;Группа&gt;"><g id="_Группа_4" data-name="&lt;Группа&gt;"><path id="_Контур_3" data-name="&lt;Контур&gt;" class="cls-1" d="M26.28,9c.08,2.46-3.77,2.72-3.77.25s5.69-4.53,9.89-3.52,2,5.2.46,6.27c-1.91,1.34-4.83.17-3.1-2.89,1-1.8,3.46,0,2.48.83-1.24,1-2.37,2.45-1,2.36,1.19-.08,2.49-1.63,2.83-3.4s-1-2.49-3-2.77-6.48.46-7.82,2.06.48,2.71.94,2.43.22-2.08,1.07-2.35A.72.72,0,0,1,26.28,9Z"/></g><g id="_Группа_5" data-name="&lt;Группа&gt;"><path id="_Контур_4" data-name="&lt;Контур&gt;" class="cls-1" d="M32.31,7c.1-.3-1.72-.63-3-.54a9.63,9.63,0,0,0-3.43.8c-.18.28,1.48-.2,3.48-.36C30.86,6.77,32.19,7.32,32.31,7Z"/></g><g id="_Группа_6" data-name="&lt;Группа&gt;"><path id="_Контур_5" data-name="&lt;Контур&gt;" class="cls-1" d="M20.58,6.09c2.47.26,1.79,4.58-.55,4.58s-6-5-7.17-3.78.29,1.73.48,1.82,0,.48-.35.29-1.16-.88-.88-1.69,1.08-1.45,2.5-.57S18.42,9.71,19,10a1.52,1.52,0,0,0,2-.42c.48-.86.54-1.91.19-2.2-.84-.68-1,.4-1.2,1.12-.34,1.54-1.87.61-1.77-.54A2.16,2.16,0,0,1,20.58,6.09Z"/></g><g id="_Группа_7" data-name="&lt;Группа&gt;"><path id="_Контур_6" data-name="&lt;Контур&gt;" class="cls-1" d="M22.33,10.21c-.14,1.85,1.49,3.27,2.21,3s.6-1-.31-1.34C22.66,11.26,22.46,10.76,22.33,10.21Z"/></g><g id="_Группа_8" data-name="&lt;Группа&gt;"><path id="_Контур_7" data-name="&lt;Контур&gt;" class="cls-1" d="M21.93,10.33c-.17,2.38-3.28,3.69-4.47,3.12-1-.48-.81-1.42.83-1.6C21.13,11.55,21.57,11,21.93,10.33Z"/></g><g id="_Группа_9" data-name="&lt;Группа&gt;"><path id="_Контур_8" data-name="&lt;Контур&gt;" class="cls-1" d="M18.81,10.9c-.88-.78-3.61-2.53-4-2.88C14.55,8,16.84,10.32,18.81,10.9Z"/></g></g><g id="_Группа_10" data-name="&lt;Группа&gt;"><g id="_Группа_11" data-name="&lt;Группа&gt;"><path id="_Контур_9" data-name="&lt;Контур&gt;" class="cls-1" d="M47.06,9c-.08,2.46,3.77,2.72,3.77.25s-5.69-4.53-9.89-3.52-2,5.2-.46,6.27c1.91,1.34,4.83.17,3.1-2.89-1-1.8-3.46,0-2.48.83,1.24,1,2.37,2.45,1,2.36-1.19-.08-2.49-1.63-2.83-3.4s1-2.49,3-2.77,6.48.46,7.82,2.06-.48,2.71-.94,2.43-.22-2.08-1.07-2.35A.72.72,0,0,0,47.06,9Z"/></g><g id="_Группа_12" data-name="&lt;Группа&gt;"><path id="_Контур_10" data-name="&lt;Контур&gt;" class="cls-1" d="M41,7c-.1-.3,1.72-.63,3-.54a9.63,9.63,0,0,1,3.43.8c.18.28-1.48-.2-3.48-.36C42.47,6.77,41.14,7.32,41,7Z"/></g><g id="_Группа_13" data-name="&lt;Группа&gt;"><path id="_Контур_11" data-name="&lt;Контур&gt;" class="cls-1" d="M52.76,6.09c-2.47.26-1.79,4.58.55,4.58s6-5,7.17-3.78S60.19,8.62,60,8.71s0,.48.35.29,1.16-.88.88-1.69-1.08-1.45-2.5-.57-3.82,3-4.43,3.28a1.52,1.52,0,0,1-2-.42c-.48-.86-.54-1.91-.19-2.2.84-.68,1,.4,1.2,1.12.34,1.54,1.87.61,1.77-.54A2.16,2.16,0,0,0,52.76,6.09Z"/></g><g id="_Группа_14" data-name="&lt;Группа&gt;"><path id="_Контур_12" data-name="&lt;Контур&gt;" class="cls-1" d="M51,10.21c.14,1.85-1.49,3.27-2.21,3s-.6-1,.31-1.34C50.68,11.26,50.87,10.76,51,10.21Z"/></g><g id="_Группа_15" data-name="&lt;Группа&gt;"><path id="_Контур_13" data-name="&lt;Контур&gt;" class="cls-1" d="M51.41,10.33c.17,2.38,3.28,3.69,4.47,3.12,1-.48.81-1.42-.83-1.6C52.21,11.55,51.77,11,51.41,10.33Z"/></g><g id="_Группа_16" data-name="&lt;Группа&gt;"><path id="_Контур_14" data-name="&lt;Контур&gt;" class="cls-1" d="M54.53,10.9c.88-.78,3.61-2.53,4-2.88C58.78,8,56.5,10.32,54.53,10.9Z"/></g></g></g></g></svg>