<svg xmlns="http://www.w3.org/2000/svg" viewBox="0 0 67.06 36.86"><defs><style>.cls-1{opacity:0.4;}.cls-2{fill:#fff;}</style></defs><title>Ресурс 12</title><g id="Слой_2" data-name="Слой 2"><g id="Layer_1" data-name="Layer 1"><g class="cls-1"><g id="_Группа_" data-name="&lt;Группа&gt;"><path id="_Контур_" data-name="&lt;Контур&gt;" class="cls-2" d="M24.44,25.75c.24,1.55,1.43,3.12,3.15,3,2.08-.17,3.35-2.49,3.84-4.27a8.12,8.12,0,0,0-.88-6.64,4,4,0,0,0-4.85-1.7c-2.3.87-4.13,3-5.94,4.56a40.65,40.65,0,0,1-6.66,5,11.83,11.83,0,0,1-7.76,1.76,5.92,5.92,0,0,1-4.88-6,4.26,4.26,0,0,1,2-3.86,7.84,7.84,0,0,1,4-.68c1.08,0,2.14.26,2.57,1.39a3.41,3.41,0,0,1,.06,2.16,3.13,3.13,0,0,1-2.28,1.88,1.68,1.68,0,0,1-1.62-.31,1.54,1.54,0,0,1,0-1.78q.52-1.1,1.82-.3c-.1.28.35.4.45.12a1,1,0,0,0-1.17-1.28A2.71,2.71,0,0,0,4.47,21c-.33,2.6,3.14,1.9,4.32.82,1.42-1.3,1.3-4.2-.56-5.06a7.3,7.3,0,0,0-3.71-.22,5.46,5.46,0,0,0-2.93,1.12c-1.87,1.57-1.92,4.44-1,6.55a6.44,6.44,0,0,0,6,3.82c6.15.13,11.16-5,15.42-8.74,1.5-1.33,3.57-3.45,5.8-3S31,19.11,31.23,21a7.85,7.85,0,0,1-1.68,6.08,2.64,2.64,0,0,1-3,1,3,3,0,0,1-1.7-2.47c0-.29-.49-.17-.45.12Z"/></g><path id="_Контур_2" data-name="&lt;Контур&gt;" class="cls-2" d="M33.43,36.86s-.11-.72-.24-1.81c-.07-.54-.15-1.17-.21-1.85s-.13-1.4-.2-2.12-.21-1.44-.22-2.12a8.33,8.33,0,0,1,.22-1.85,7.84,7.84,0,0,1,.41-1.31,4.16,4.16,0,0,1,.24-.5h.19a4.15,4.15,0,0,1,.24.5,7.83,7.83,0,0,1,.41,1.31A8.33,8.33,0,0,1,34.49,29c0,.68-.17,1.4-.22,2.12s-.12,1.44-.2,2.12-.15,1.31-.21,1.85c-.13,1.08-.24,1.81-.24,1.81Z"/><path id="_Контур_3" data-name="&lt;Контур&gt;" class="cls-2" d="M32.72,24.89l-.13.4c0,.13-.09.28-.16.46s-.15.38-.25.59-.2.44-.33.68a8.31,8.31,0,0,1-.43.72c-.16.25-.34.49-.53.74s-.4.49-.62.71l-.34.34-.36.32a4.9,4.9,0,0,1-.76.55,4.52,4.52,0,0,1-1.57.55,3.88,3.88,0,0,1-.67,0,3,3,0,0,1-.51,0,4.21,4.21,0,0,1-.43-.1v-.09l.41-.14c.13,0,.28-.1.45-.16s.35-.15.55-.22.2-.1.3-.15a3.08,3.08,0,0,0,.32-.16l.33-.18.34-.2c.24-.12.47-.27.72-.41a6.44,6.44,0,0,0,.7-.51c.23-.18.44-.39.65-.59s.4-.42.58-.64.34-.43.5-.64.28-.41.41-.6.22-.37.32-.53.17-.3.23-.42l.2-.37Z"/><circle id="_Контур_4" data-name="&lt;Контур&gt;" class="cls-2" cx="33.52" cy="17.75" r="1.69"/><circle id="_Контур_5" data-name="&lt;Контур&gt;" class="cls-2" cx="33.52" cy="22.28" r="1.07"/><g id="_Группа_2" data-name="&lt;Группа&gt;"><path id="_Контур_6" data-name="&lt;Контур&gt;" class="cls-2" d="M42.15,25.63c-.3,1.95-2.12,3.38-4,2.13-1.62-1.1-2.33-3.37-2.44-5.23a6.74,6.74,0,0,1,1.74-5.2c1.55-1.51,3.51-1.1,5.15,0,2.78,1.92,5.11,4.5,7.79,6.56a18.64,18.64,0,0,0,8.07,4c2.47.41,5.19,0,6.93-2a6.61,6.61,0,0,0,1.12-6.81c-1.1-2.33-3.7-2.71-6-2.66s-3.72,1.67-3.11,4c.48,1.82,4.55,3.86,5.12,1.13A2.66,2.66,0,0,0,61.09,19c-.83-.39-1.91.14-1.56,1.14.1.28.55.16.45-.12l1.45-.18a2.64,2.64,0,0,1,.62,1c.24,1-.37,1.47-1.18,1.61a3.27,3.27,0,0,1-2.43-1c-1.17-1.21-.87-3.73.82-4.3a8.3,8.3,0,0,1,3.63,0,4.14,4.14,0,0,1,3.35,2.53,6.06,6.06,0,0,1-2.74,7.25c-2.47,1.29-5.54.73-8-.34A28.71,28.71,0,0,1,48.76,22a64,64,0,0,0-6-5.12c-1.69-1.1-3.68-1.48-5.31-.07a7.18,7.18,0,0,0-2.08,6.13c.2,2.09,1.17,4.69,3.24,5.59s3.74-.84,4-2.75c0-.29-.4-.42-.45-.12Z"/></g><path id="_Контур_7" data-name="&lt;Контур&gt;" class="cls-2" d="M34.41,24.85l.2.37c.06.12.13.27.23.42s.19.34.32.53.25.4.41.6.31.43.5.64.37.43.58.64.42.41.65.59a6.44,6.44,0,0,0,.7.51c.25.14.48.29.72.41l.34.2.33.18a3.09,3.09,0,0,0,.32.16c.1,0,.2.11.3.15s.38.17.55.22.32.13.45.16l.41.14v.09A4.21,4.21,0,0,1,41,31a3,3,0,0,1-.51,0,3.88,3.88,0,0,1-.67,0,4.52,4.52,0,0,1-1.57-.55,4.9,4.9,0,0,1-.76-.55l-.36-.32-.34-.34c-.22-.23-.43-.47-.62-.71s-.37-.49-.53-.74A8.31,8.31,0,0,1,35.2,27c-.13-.23-.23-.47-.33-.68s-.17-.41-.25-.59-.12-.33-.16-.46l-.13-.4Z"/></g><g class="cls-1"><g id="_Группа_3" data-name="&lt;Группа&gt;"><path id="_Контур_8" data-name="&lt;Контур&gt;" class="cls-2" d="M47.84,10.18l.08-.06a.87.87,0,0,0,.18-.21.94.94,0,0,0,.14-.42.84.84,0,0,0-.14-.55,1.51,1.51,0,0,0-1.41-.52,2.88,2.88,0,0,0-.94.27,9.64,9.64,0,0,0-1,.51c-.68.39-1.37.9-2.19,1.33a7.6,7.6,0,0,1-2.79.9,5.27,5.27,0,0,1-1.59-.06,3.3,3.3,0,0,1-.38-.1,2.36,2.36,0,0,1-.41-.18L37.2,11,37,10.84a2.4,2.4,0,0,1-.32-.31,3.1,3.1,0,0,1-.66-1.59,5,5,0,0,1,1.83-4.47,4.37,4.37,0,0,1,1.44-.79,2.51,2.51,0,0,1,1.66,0,2,2,0,0,1,.71.46,1.63,1.63,0,0,1,.41.73,1.9,1.9,0,0,1-.3,1.52,3.62,3.62,0,0,1-1,1,3.51,3.51,0,0,1-1.18.54,1.32,1.32,0,0,1-.66,0,.65.65,0,0,1-.31-.2.57.57,0,0,1-.09-.16l0-.09a.32.32,0,0,1,0-.12,1.31,1.31,0,0,1,.1-.29,1.79,1.79,0,0,1,.14-.25,1.21,1.21,0,0,1,.4-.37,2.09,2.09,0,0,0,.69-.51c.15-.2.23-.48.05-.58a.78.78,0,0,0-.56,0,1.64,1.64,0,0,0-.41.17,1.3,1.3,0,0,0-.3.22,1.3,1.3,0,0,1,.29-.25,1.69,1.69,0,0,1,.41-.21.83.83,0,0,1,.64,0,.36.36,0,0,1,.18.37A1,1,0,0,1,40,6a1.13,1.13,0,0,1-.32.34l-.38.27A1,1,0,0,0,39,7a1.54,1.54,0,0,0-.1.21,1.27,1.27,0,0,0-.07.22s0,0,0,0l0,0a.3.3,0,0,0,.05.08.33.33,0,0,0,.17.09,1,1,0,0,0,.49,0,3.14,3.14,0,0,0,1-.53,3.27,3.27,0,0,0,.84-.9A1.43,1.43,0,0,0,41.62,5a1.26,1.26,0,0,0-.82-.83,2,2,0,0,0-1.3,0,4.06,4.06,0,0,0-1.24.71,4.56,4.56,0,0,0-1.61,3.94,2.51,2.51,0,0,0,.51,1.28,1.82,1.82,0,0,0,.24.23l.13.1.14.08a1.81,1.81,0,0,0,.29.14,2.85,2.85,0,0,0,.35.1,4.79,4.79,0,0,0,1.4.08,7.47,7.47,0,0,0,2.63-.77c.8-.4,1.52-.86,2.23-1.23a8.85,8.85,0,0,1,1.05-.48,3.14,3.14,0,0,1,1-.22,1.67,1.67,0,0,1,1.53.69.89.89,0,0,1,.11.63,1,1,0,0,1-.19.43.89.89,0,0,1-.21.2Z"/></g><g id="_Группа_4" data-name="&lt;Группа&gt;"><path id="_Контур_9" data-name="&lt;Контур&gt;" class="cls-2" d="M37.72,8.67A1.67,1.67,0,0,0,38,9a2.18,2.18,0,0,0,1,.45l.17,0,.17,0h.36a3.57,3.57,0,0,0,.77-.12A7,7,0,0,0,42,8.7c.27-.14.53-.29.79-.45s.53-.3.79-.45a7.32,7.32,0,0,1,1.5-.64A3.92,3.92,0,0,1,45.78,7a2.75,2.75,0,0,1,.51,0,2,2,0,0,1,.32,0l.11,0H46.6l-.31.05a3.87,3.87,0,0,0-.47.12,6.06,6.06,0,0,0-.58.23,12,12,0,0,0-1.35.77l-.75.49c-.26.16-.53.33-.81.49a8.93,8.93,0,0,1-.87.41,4.8,4.8,0,0,1-.91.26,3.22,3.22,0,0,1-.9,0,2.65,2.65,0,0,1-.42-.07L39,9.82l-.17-.06a2,2,0,0,1-.95-.71,1.52,1.52,0,0,1-.16-.28Z"/></g><g id="_Группа_5" data-name="&lt;Группа&gt;"><path id="_Контур_10" data-name="&lt;Контур&gt;" class="cls-2" d="M19.22,10.18l-.08-.05a.89.89,0,0,1-.21-.2,1,1,0,0,1-.19-.43.89.89,0,0,1,.11-.63,1.67,1.67,0,0,1,1.53-.69,3.14,3.14,0,0,1,1,.22,8.85,8.85,0,0,1,1.05.48c.71.37,1.43.84,2.23,1.23a7.47,7.47,0,0,0,2.63.77,4.79,4.79,0,0,0,1.4-.08,2.85,2.85,0,0,0,.35-.1,1.82,1.82,0,0,0,.29-.14l.14-.08.13-.1a1.82,1.82,0,0,0,.24-.23,2.51,2.51,0,0,0,.51-1.28A4.56,4.56,0,0,0,28.8,4.93a4.06,4.06,0,0,0-1.24-.71,2,2,0,0,0-1.3,0,1.26,1.26,0,0,0-.82.83,1.43,1.43,0,0,0,.21,1.14,3.27,3.27,0,0,0,.84.9,3.14,3.14,0,0,0,1,.53,1,1,0,0,0,.49,0,.33.33,0,0,0,.17-.09.3.3,0,0,0,.05-.08l0,0s0,0,0,0a1.27,1.27,0,0,0-.07-.22,1.54,1.54,0,0,0-.1-.21,1,1,0,0,0-.3-.32l-.38-.27A1.13,1.13,0,0,1,27.06,6a1,1,0,0,1-.15-.4.36.36,0,0,1,.18-.37.83.83,0,0,1,.64,0,1.69,1.69,0,0,1,.41.21,1.3,1.3,0,0,1,.29.25,1.3,1.3,0,0,0-.3-.22,1.64,1.64,0,0,0-.41-.17.78.78,0,0,0-.56,0c-.18.1-.1.38.05.58a2.09,2.09,0,0,0,.69.51,1.21,1.21,0,0,1,.4.37,1.79,1.79,0,0,1,.14.25,1.31,1.31,0,0,1,.1.29.32.32,0,0,1,0,.12l0,.09a.57.57,0,0,1-.09.16.65.65,0,0,1-.31.2,1.32,1.32,0,0,1-.66,0,3.51,3.51,0,0,1-1.18-.54,3.62,3.62,0,0,1-1-1A1.9,1.9,0,0,1,25,4.89a1.63,1.63,0,0,1,.41-.73,2,2,0,0,1,.71-.46,2.51,2.51,0,0,1,1.66,0,4.37,4.37,0,0,1,1.44.79A5,5,0,0,1,31,8.94a3.1,3.1,0,0,1-.66,1.59,2.4,2.4,0,0,1-.32.31l-.17.14-.19.11a2.36,2.36,0,0,1-.41.18,3.3,3.3,0,0,1-.38.1,5.27,5.27,0,0,1-1.59.06,7.6,7.6,0,0,1-2.79-.9c-.82-.44-1.52-.94-2.19-1.33a9.64,9.64,0,0,0-1-.51,2.88,2.88,0,0,0-.94-.27A1.51,1.51,0,0,0,19,8.94a.84.84,0,0,0-.14.55.94.94,0,0,0,.14.42.87.87,0,0,0,.18.21Z"/></g><g id="_Группа_6" data-name="&lt;Группа&gt;"><path id="_Контур_11" data-name="&lt;Контур&gt;" class="cls-2" d="M29.33,8.67l0,.1a1.52,1.52,0,0,1-.16.28,2,2,0,0,1-.95.71L28,9.82l-.2.05a2.65,2.65,0,0,1-.42.07,3.22,3.22,0,0,1-.9,0,4.8,4.8,0,0,1-.91-.26,8.93,8.93,0,0,1-.87-.41c-.28-.15-.55-.32-.81-.49l-.75-.49a12,12,0,0,0-1.35-.77,6.06,6.06,0,0,0-.58-.23,3.87,3.87,0,0,0-.47-.12l-.31-.05h-.11l.11,0a2,2,0,0,1,.32,0,2.75,2.75,0,0,1,.51,0,3.91,3.91,0,0,1,.65.12,7.32,7.32,0,0,1,1.5.64c.26.14.53.29.79.45s.52.31.79.45a7,7,0,0,0,1.6.67,3.57,3.57,0,0,0,.77.12h.36l.17,0,.17,0A2.18,2.18,0,0,0,29,9,1.67,1.67,0,0,0,29.33,8.67Z"/></g><polygon id="_Контур_12" data-name="&lt;Контур&gt;" class="cls-2" points="33.33 6.61 31.22 3.3 33.33 0 35.45 3.3 33.33 6.61"/><circle id="_Контур_13" data-name="&lt;Контур&gt;" class="cls-2" cx="33.33" cy="10.07" r="0.97"/></g></g></g></svg>