<svg xmlns="http://www.w3.org/2000/svg" viewBox="0 0 49.23 13.75"><defs><style>.cls-1{fill:#ffc14b;}</style></defs><title>separator-1</title><g id="Слой_2" data-name="Слой 2"><g id="Layer_1" data-name="Layer 1"><g id="_Группа_" data-name="&lt;Группа&gt;"><path id="_Контур_" data-name="&lt;Контур&gt;" class="cls-1" d="M24.71,3.82S27,7.36,27,8.78s-2.25,5-2.25,5-2.25-3.54-2.25-5S24.71,3.82,24.71,3.82Z"/></g><g id="_Группа_2" data-name="&lt;Группа&gt;"><circle id="_Контур_2" data-name="&lt;Контур&gt;" class="cls-1" cx="24.71" cy="1.23" r="0.9"/></g><g id="_Группа_3" data-name="&lt;Группа&gt;"><g id="_Группа_4" data-name="&lt;Группа&gt;"><path id="_Контур_3" data-name="&lt;Контур&gt;" class="cls-1" d="M14.23,3.53c.08,2.46-3.77,2.72-3.77.25S16.15-.75,20.36.26s2,5.2.46,6.27c-1.91,1.34-4.83.17-3.1-2.89,1-1.8,3.46,0,2.48.83-1.24,1-2.37,2.45-1,2.36,1.19-.08,2.49-1.63,2.83-3.4S21,.94,19,.66s-6.48.46-7.82,2.06.48,2.71.94,2.43.22-2.08,1.07-2.35A.72.72,0,0,1,14.23,3.53Z"/></g><g id="_Группа_5" data-name="&lt;Группа&gt;"><path id="_Контур_4" data-name="&lt;Контур&gt;" class="cls-1" d="M20.26,1.54c.1-.3-1.72-.63-3-.54a9.63,9.63,0,0,0-3.43.8c-.18.28,1.48-.2,3.48-.36C18.81,1.32,20.14,1.87,20.26,1.54Z"/></g><g id="_Группа_6" data-name="&lt;Группа&gt;"><path id="_Контур_5" data-name="&lt;Контур&gt;" class="cls-1" d="M8.52.64C11,.9,10.31,5.21,8,5.21S2,.23.81,1.43s.29,1.73.48,1.82,0,.48-.35.29S-.22,2.66.06,1.85,1.13.41,2.55,1.28,6.37,4.26,7,4.56a1.52,1.52,0,0,0,2-.42c.48-.86.54-1.91.19-2.2-.84-.68-1,.4-1.2,1.12-.34,1.54-1.87.61-1.77-.54A2.16,2.16,0,0,1,8.52.64Z"/></g><g id="_Группа_7" data-name="&lt;Группа&gt;"><path id="_Контур_6" data-name="&lt;Контур&gt;" class="cls-1" d="M10.27,4.76c-.14,1.85,1.49,3.27,2.21,3s.6-1-.31-1.34C10.61,5.81,10.41,5.31,10.27,4.76Z"/></g><g id="_Группа_8" data-name="&lt;Группа&gt;"><path id="_Контур_7" data-name="&lt;Контур&gt;" class="cls-1" d="M9.88,4.87C9.71,7.26,6.6,8.56,5.41,8c-1-.48-.81-1.42.83-1.6C9.07,6.1,9.52,5.52,9.88,4.87Z"/></g><g id="_Группа_9" data-name="&lt;Группа&gt;"><path id="_Контур_8" data-name="&lt;Контур&gt;" class="cls-1" d="M6.76,5.45c-.88-.78-3.61-2.53-4-2.88C2.5,2.57,4.79,4.86,6.76,5.45Z"/></g></g><g id="_Группа_10" data-name="&lt;Группа&gt;"><g id="_Группа_11" data-name="&lt;Группа&gt;"><path id="_Контур_9" data-name="&lt;Контур&gt;" class="cls-1" d="M35,3.53c-.08,2.46,3.77,2.72,3.77.25S33.08-.75,28.87.26s-2,5.2-.46,6.27c1.91,1.34,4.83.17,3.1-2.89-1-1.8-3.46,0-2.48.83,1.24,1,2.37,2.45,1,2.36-1.19-.08-2.49-1.63-2.83-3.4s1-2.49,3-2.77,6.48.46,7.82,2.06-.48,2.71-.94,2.43S36.87,3.06,36,2.79A.72.72,0,0,0,35,3.53Z"/></g><g id="_Группа_12" data-name="&lt;Группа&gt;"><path id="_Контур_10" data-name="&lt;Контур&gt;" class="cls-1" d="M29,1.54c-.1-.3,1.72-.63,3-.54a9.63,9.63,0,0,1,3.43.8c.18.28-1.48-.2-3.48-.36C30.42,1.32,29.09,1.87,29,1.54Z"/></g><g id="_Группа_13" data-name="&lt;Группа&gt;"><path id="_Контур_11" data-name="&lt;Контур&gt;" class="cls-1" d="M40.71.64c-2.47.26-1.79,4.58.55,4.58s6-5,7.17-3.78-.29,1.73-.48,1.82,0,.48.35.29,1.16-.88.88-1.69S48.1.41,46.68,1.28s-3.82,3-4.43,3.28a1.52,1.52,0,0,1-2-.42c-.48-.86-.54-1.91-.19-2.2.84-.68,1,.4,1.2,1.12.34,1.54,1.87.61,1.77-.54A2.16,2.16,0,0,0,40.71.64Z"/></g><g id="_Группа_14" data-name="&lt;Группа&gt;"><path id="_Контур_12" data-name="&lt;Контур&gt;" class="cls-1" d="M39,4.76c.14,1.85-1.49,3.27-2.21,3s-.6-1,.31-1.34C38.63,5.81,38.82,5.31,39,4.76Z"/></g><g id="_Группа_15" data-name="&lt;Группа&gt;"><path id="_Контур_13" data-name="&lt;Контур&gt;" class="cls-1" d="M39.36,4.87c.17,2.38,3.28,3.69,4.47,3.12,1-.48.81-1.42-.83-1.6C40.16,6.1,39.71,5.52,39.36,4.87Z"/></g><g id="_Группа_16" data-name="&lt;Группа&gt;"><path id="_Контур_14" data-name="&lt;Контур&gt;" class="cls-1" d="M42.47,5.45c.88-.78,3.61-2.53,4-2.88C46.73,2.57,44.44,4.86,42.47,5.45Z"/></g></g></g></g></svg>