<svg xmlns="http://www.w3.org/2000/svg" viewBox="0 0 23.14 22.01"><defs><style>.cls-1{opacity:0.6;}.cls-2{fill:#191919;}.cls-3{opacity:0.3;}.cls-4{fill:#fff;}</style></defs><title>Ресурс 4</title><g id="Слой_2" data-name="Слой 2"><g id="Layer_1" data-name="Layer 1"><g class="cls-1"><polygon class="cls-2" points="11.57 0 15.15 7.25 23.14 8.41 17.36 14.05 18.72 22.01 11.57 18.25 4.42 22.01 5.79 14.05 0 8.41 8 7.25 11.57 0"/><g class="cls-3"><path class="cls-4" d="M11.57,2.26l2.68,5.43.23.47.52.08,6,.87-4.34,4.22-.38.37.09.52,1,6L12,17.37l-.47-.25-.46.25L5.75,20.18l1-6,.09-.52-.38-.37L2.15,9.11l6-.87.52-.08.23-.47,2.68-5.43m0-2.26L8,7.25,0,8.41l5.79,5.64L4.42,22l7.15-3.76L18.72,22l-1.36-8,5.78-5.64-8-1.16L11.57,0Z"/></g></g></g></g></svg>