<?xml version="1.0" encoding="utf-8"?>
<!-- Generator: Adobe Illustrator 21.0.0, SVG Export Plug-In . SVG Version: 6.00 Build 0)  -->
<svg version="1.1" id="Layer_1" xmlns="http://www.w3.org/2000/svg" xmlns:xlink="http://www.w3.org/1999/xlink" x="0px" y="0px"
	 viewBox="0 0 27.7 20" style="enable-background:new 0 0 27.7 20;" xml:space="preserve">
<style type="text/css">
	.st0{opacity:0.6;fill:none;stroke:#FFFFFF;stroke-miterlimit:10;}
</style>
<title>youtube</title>
<path class="st0" d="M25.6,17.3l-3.5,0c0,0-0.7,0.1-1.7-0.5c-1.3-0.9-2.5-3.2-3.5-2.9c-1,0.3-0.9,2.4-0.9,2.4s0,0.4-0.2,0.7
	c-0.2,0.3-0.7,0.3-0.7,0.3h-1.5c0,0-3.4,0.2-6.4-2.9C3.9,11,1,4.2,1,4.2S0.8,3.8,1,3.5c0.2-0.2,0.8-0.3,0.8-0.3l3.7,0
	c0,0,0.3,0.1,0.6,0.2c0.2,0.2,0.3,0.4,0.3,0.4S7,5.4,7.8,6.8c1.5,2.7,2.3,3.3,2.8,3C11.3,9.4,11.1,6,11.1,6s0-1.2-0.4-1.8
	c-0.3-0.4-0.9-0.5-1.1-0.6c-0.2,0,0.1-0.5,0.6-0.7c0.7-0.3,1.8-0.3,3.2-0.3c1.1,0,1.4,0.1,1.8,0.2C16.4,3.1,16,4.3,16,7.1
	c0,0.9-0.2,2.2,0.5,2.6c0.3,0.2,1,0,2.7-2.9c0.8-1.4,1.4-3,1.4-3s0.1-0.3,0.3-0.4c0.2-0.1,0.5-0.1,0.5-0.1l3.9,0
	c0,0,1.2-0.1,1.4,0.4c0.2,0.6-0.4,1.8-2,4c-2.6,3.5-2.9,3.2-0.7,5.2c2.1,1.9,2.5,2.9,2.6,3C27.4,17.2,25.6,17.3,25.6,17.3z"/>
</svg>
